<svg width="22" height="15" viewBox="0 0 22 15" fill="none" xmlns="http://www.w3.org/2000/svg">
<path d="M5.74079 9.16446C5.67854 8.82211 5.24208 8.76792 5.01854 9.03458C4.51234 9.63842 3.7583 9.99996 2.94934 9.99996H1C0.447715 9.99996 0 9.55224 0 8.99996C0 8.44767 0.447715 7.99996 1 7.99996H2.94934C3.21448 7.99996 3.45687 7.85015 3.57544 7.61301L4.10557 6.55274C4.53666 5.69057 5.58505 5.34111 6.44721 5.7722C6.93858 6.01788 7.2856 6.48057 7.38387 7.02107C7.38387 7.02107 7.6665 8.57554 7.76455 9.11479C7.83345 9.49378 8.37887 9.48812 8.47193 9.11433C8.48002 9.08185 8.48638 9.05517 8.49061 9.03571C8.83081 7.47077 9.90899 2.51116 9.90899 2.51116C10.2258 1.05403 11.6638 0.129577 13.1209 0.446346C14.2404 0.68971 15.0844 1.61305 15.2265 2.74983L16.0179 9.08073C16.0681 9.48244 16.6402 9.50944 16.728 9.11424C17.0025 7.87889 18.0982 6.99996 19.3637 6.99996H21C21.5523 6.99996 22 7.44767 22 7.99996C22 8.55224 21.5523 8.99996 21 8.99996H19.3637C19.0356 8.99996 18.7515 9.22783 18.6804 9.5481L17.9762 12.7169C17.8113 13.4588 17.1978 14.0171 16.4436 14.1113C15.458 14.2345 14.5592 13.5354 14.436 12.5498L13.242 2.9979C13.2051 2.70318 12.9863 2.46379 12.6961 2.4007C12.3183 2.31857 11.9455 2.55825 11.8633 2.93602L10.1647 10.7498C9.98313 11.585 9.31683 12.2289 8.47592 12.3818C7.32642 12.5908 6.22513 11.8283 6.01613 10.6788L5.74079 9.16446Z" fill="#5A78FF"/>
</svg>
